<svg xmlns="http://www.w3.org/2000/svg" width="auto" height="auto" viewBox="0 0 22 20">
	<path d="M15.2 0a3.246 3.246 0 00-2.879 1.844c-1.216 2.511 1.37 4.856 2.347 5.734l.16.148a18.347 18.347 0 001.531 1.2 1.091 1.091 0 001.281 0 18.347 18.347 0 001.531-1.2l.16-.148c.977-.883 3.563-3.223 2.352-5.734A3.246 3.246 0 0018.8 0a3.351 3.351 0 00-1.8.523A3.351 3.351 0 0015.2 0zm0 2a2.933 2.933 0 011.789.645A2.75 2.75 0 0118.8 2 1.2 1.2 0 0120 3.2c0 1.078-1.461 2.4-2.012 2.895l-.184.172c-.254.234-.551.48-.8.68-.254-.2-.555-.445-.809-.68l-.18-.172C15.461 5.6 14 4.277 14 3.2A1.2 1.2 0 0115.2 2zM2 4A1.994 1.994 0 00.023 5.766L10 12l3.9-2.437a8.61 8.61 0 01-.414-.355l-.156-.145A9.24 9.24 0 0110.063 4zM0 7.75V18a2 2 0 002 2h16a2 2 0 002-2V9.648c-.77.621-1.734 1.289-1.867 1.383l-.586.4a.965.965 0 01-1.094 0l-.586-.4c-.055-.039-.258-.18-.523-.371l-4.812 3.012a1.019 1.019 0 01-1.062 0zm0 0" fill="#fff"></path>
</svg>