<svg xmlns="http://www.w3.org/2000/svg" width="100%" height="100%" preserveAspectRatio="xMidYMid slice" viewBox="0 0 261.116 180.823">
	<g data-name="Group 661">
		<g data-name="Group 656">
			<path data-name="Rectangle 250" fill="#bf1e2e" d="M148.869 133.492l.429 1.198-51.7 18.496-.429-1.198z"></path>
		</g>
		<g data-name="Group 657">
			<path data-name="Rectangle 251" fill="#bf1e2e" d="M150.422 137.83l.429 1.198-51.7 18.496-.429-1.198z"></path>
		</g>
		<g data-name="Group 658">
			<path data-name="Rectangle 252" fill="#bf1e2e" d="M151.974 142.17l.429 1.198-51.7 18.496-.429-1.198z"></path>
		</g>
		<g data-name="Group 659">
			<path data-name="Rectangle 253" fill="#bf1e2e" d="M153.525 146.51l.429 1.198-51.7 18.496-.429-1.198z"></path>
		</g>
		<g data-name="Group 660">
			<path data-name="Rectangle 254" fill="#bf1e2e" d="M155.076 150.848l.429 1.198-51.7 18.496-.429-1.198z"></path>
		</g>
	</g>
	<g data-name="Group 667">
		<g data-name="Group 662">
			<path data-name="Rectangle 255" fill="#bf1e2e" d="M15.588 94.139l61.643 15.38-.307 1.233-61.644-15.38z"></path>
		</g>
		<g data-name="Group 663">
			<path data-name="Rectangle 256" fill="#bf1e2e" d="M14.08 100.19l61.643 15.38-.307 1.233-61.644-15.38z"></path>
		</g>
		<g data-name="Group 664">
			<path data-name="Rectangle 257" fill="#bf1e2e" d="M12.576 106.24l61.643 15.38-.307 1.233-61.644-15.38z"></path>
		</g>
		<g data-name="Group 665">
			<path data-name="Rectangle 258" fill="#bf1e2e" d="M11.067 112.291l61.643 15.38-.307 1.233-61.644-15.38z"></path>
		</g>
		<g data-name="Group 666">
			<path data-name="Rectangle 259" fill="#bf1e2e" d="M9.563 118.342l61.643 15.38-.307 1.233-61.644-15.38z"></path>
		</g>
	</g>
	<g data-name="Group 673">
		<g data-name="Group 668">
			<path data-name="Rectangle 260" fill="#bf1e2e" d="M151.852 43.07h69.694v1.272h-69.694z"></path>
		</g>
		<g data-name="Group 669">
			<path data-name="Rectangle 261" fill="#bf1e2e" d="M151.852 49.909h69.694v1.272h-69.694z"></path>
		</g>
		<g data-name="Group 670">
			<path data-name="Rectangle 262" fill="#bf1e2e" d="M151.852 56.749h69.694v1.272h-69.694z"></path>
		</g>
		<g data-name="Group 671">
			<path data-name="Rectangle 263" fill="#bf1e2e" d="M151.852 63.586h69.694v1.272h-69.694z"></path>
		</g>
		<g data-name="Group 672">
			<path data-name="Rectangle 264" fill="#bf1e2e" d="M151.852 70.425h69.694v1.272h-69.694z"></path>
		</g>
	</g>
	<path data-name="Path 102" d="M19.237 153.358l-6.04-6.549 6.544-6.046 6.04 6.549z" fill="#353a5d"></path>
	<path data-name="Path 103" d="M228.888 39.833l-9.544 7.833-7.827-9.552 9.544-7.833z" fill="#353a5d" opacity="0.2"></path>
	<path data-name="Path 143" d="M60.888 162.833l-9.544 7.833-7.827-9.552 9.544-7.833z" fill="#353a5d" opacity="0.2"></path>
	<path data-name="Path 144" d="M74.888 51.411l-6.248-5.128-5.123 6.253 6.247 5.128z" fill="#353a5d" opacity="0.2"></path>
	<path data-name="Path 146" d="M228.888 158.411l-6.248-5.128-5.123 6.253 6.247 5.128z" fill="#353a5d" opacity="0.2"></path>
	<path data-name="Path 145" d="M58.146 26.089l-9.827-8.066-8.059 9.836 9.827 8.066z" fill="#353a5d" opacity="0.2"></path>
	<path data-name="Path 104" d="M87.072 86.872l6.753-7.322 7.316 6.759-6.753 7.322z" fill="#353a5d"></path>
	<path data-name="Path 105" d="M117.912 79.91l6.754-7.322 7.316 6.759-6.753 7.322z" fill="#353a5d"></path>
	<g data-name="Group 674">
		<path data-name="Path 106" d="M101.118 86.34h-2.542V58.615l33.406-15.1v35.85h-2.542v-31.91l-28.322 12.8z" fill="#353a5d"></path>
	</g>
	<path data-name="Path 107" d="M121.332 173.166l2.09 5.564-5.559 2.093-2.091-5.564z" fill="#bf1e2e"></path>
	<g data-name="Group 675">
		<path data-name="Path 108" d="M25.763 147.292h-2.542v-26.9L0 97.149l23.221-23.241V40.464l18.507 18.522-15.965 15.979v13.364l3.575-3.579 15.779 15.792-19.354 19.37v27.38zM3.6 97.149l19.62 19.642V94.47l-6.542 6.547-1.8-1.8 8.341-8.348V77.507zm22.167-5.223v24.39l15.758-15.773-12.188-12.196zm0-45.321v24.759l12.364-12.378z" fill="#353a5d"></path>
	</g>
	<g data-name="Group 676">
		<path data-name="Path 109" d="M100.658 68.038l-1.079-2.3 30.507-14.315 1.078 2.3z" fill="#353a5d"></path>
	</g>
	<path data-name="Path 110" d="M147.672 161.841l-6.177-6.7 6.692-6.183 6.177 6.7z" fill="#353a5d"></path>
	<path data-name="Path 111" d="M119.462 155.478l-6.177-6.7 6.692-6.183 6.177 6.7z" fill="#353a5d"></path>
	<g data-name="Group 677">
		<path data-name="Path 112" d="M144.055 155.154h-2.542v-23.79l-25.691-11.61v29.019h-2.542v-32.96l30.774 13.908z" fill="#353a5d"></path>
	</g>
	<path data-name="Path 113" d="M171.778 58.121l6.754-7.322 7.316 6.759-6.754 7.322z" fill="#353a5d"></path>
	<path data-name="Path 114" d="M191.208 67.172l6.753-7.322 7.316 6.759-6.753 7.322z" fill="#353a5d"></path>
	<g data-name="Group 678">
		<path data-name="Path 115" d="M205.279 66.615h-2.542V23.764l-16.881 7.7v26.09h-2.542V29.832l21.965-10.022z" fill="#353a5d"></path>
	</g>
	<g data-name="Group 679">
		<path data-name="Path 116" d="M185.357 39.243l-1.107-2.289 19.062-9.23 1.107 2.291z" fill="#353a5d"></path>
	</g>
	<path data-name="Path 117" d="M234.619 142.739l6.753-7.322 7.316 6.759-6.753 7.322z" fill="#353a5d"></path>
	<g data-name="Group 680">
		<path data-name="Path 118" d="M248.706 142.149h-2.538v-27.574l13.517-9.24 1.435 2.1-12.41 8.482z" fill="#353a5d"></path>
	</g>
	<g data-name="Group 681">
		<path data-name="Path 119" d="M248.45 123.721l-1.5-2.054 12.61-9.217 1.5 2.055z" fill="#353a5d"></path>
	</g>
	<path data-name="Path 120" d="M115.39 6.759l-6.753 7.322-7.316-6.759L108.074 0z" fill="#bf1e2e"></path>
	<g data-name="Group 682">
		<path data-name="Rectangle 265" fill="#bf1e2e" d="M101.32 7.332h2.542v26.904h-2.542z"></path>
	</g>
	<path data-name="Path 121" d="M185.445 125.355l-9.485-9.494 9.485-9.494 9.485 9.494z" fill="#353a5d"></path>
	<path data-name="Rectangle 266" fill="#353a5d" d="M210.721 126.03h4.951v4.955h-4.951z"></path>
	<path data-name="Rectangle 267" fill="#353a5d" d="M210.721 111.21h4.951v4.955h-4.951z"></path>
	<g data-name="Group 683">
		<path data-name="Path 122" d="M187.824 145.814l-7.087-7.093 1.8-1.8 5.29 5.294 14.912-14.925-13.953-13.965 1.8-1.8 15.751 15.764z" fill="#353a5d"></path>
	</g>
</svg>