<svg xmlns="http://www.w3.org/2000/svg" width="40.954" height="36.404" viewBox="0 0 40.954 36.404">
	<path d="M40.412.009L36 1.212a1.517 1.517 0 00-1.117 1.463V8.2c0 1.891-4.55.494-4.55 4.444a2.535 2.535 0 002.628 2.521c2.67 0 3.44-2.028 3.44-4.281V5.137l4.174-1.247a.472.472 0 00.379-.462V.453a.453.453 0 00-.542-.444zM19.719 3.034c-4.188 0-7.584 1.019-7.584 2.275 0 .933 4.55 2.275 4.55 8.342V36.4h6.067V13.651c0-6.067 4.55-7.41 4.55-8.342-.002-1.256-3.395-2.275-7.583-2.275zM7.584 9.868a4.574 4.574 0 00-4.55 4.55v9.85A3.033 3.033 0 006.067 27.3h4.393a1.5 1.5 0 001.5-1.754A10.182 10.182 0 007.43 19.3c-1.23-.839-1.363-.694-1.363-2.619v-2.262a1.517 1.517 0 113.034 0c0 .876-.486.83-.486.83a1.517 1.517 0 10.972 2.874 4.29 4.29 0 002.548-3.7 4.574 4.574 0 00-4.551-4.555zM.758 16.694a.758.758 0 10.758.758.758.758 0 00-.758-.758zM32.612 18.2c-2.932 0-5.309.68-5.309 1.517 0 .6 3.034 2.312 3.034 6.067h4.55c0-3.8 3.034-5.464 3.034-6.067-.001-.836-2.377-1.517-5.309-1.517zM.758 19.728a.758.758 0 10.758.758.758.758 0 00-.758-.758zm0 3.034a.758.758 0 10.758.758.758.758 0 00-.758-.759zm19.719 1.508a.758.758 0 11-.758.758.759.759 0 01.758-.759zm0 3.034a.758.758 0 11-.758.758.759.759 0 01.758-.762zm7.584 1.517a.758.758 0 10.758.758.758.758 0 00-.758-.759zm2.275 0V36.4h4.55v-7.58zM4.55 30.336V36.4h6.067v-6.064zm15.927 0a.758.758 0 11-.758.758.759.759 0 01.758-.758zm7.584 1.517a.758.758 0 10.758.758.758.758 0 00-.758-.758zm0 3.034a.758.758 0 10.758.758.758.758 0 00-.758-.758z" fill="#353a5d" opacity="0.1"></path>
</svg>