<svg xmlns="http://www.w3.org/2000/svg" width="14px" height="14px" viewBox="0 0 13.887 13.887">
	<path d="M13.888 13.887H0a1.47 1.47 0 01.233-.971 6.9 6.9 0 012.76-1.778 11.1 11.1 0 013.954-.851 11.1 11.1 0 013.954.851 6.906 6.906 0 012.757 1.778 1.515 1.515 0 01.233.971zM6.945 8.358a3.731 3.731 0 01-2.679-1.13A3.868 3.868 0 013.155 4.5v-.642a3.868 3.868 0 011.11-2.728 3.742 3.742 0 015.359 0 3.868 3.868 0 011.11 2.728V4.5a3.868 3.868 0 01-1.11 2.728 3.731 3.731 0 01-2.679 1.13z" fill="#777"></path>
</svg>